<svg xmlns="http://www.w3.org/2000/svg" viewBox="0 0 960 56" fill="#F4F1E7">
  <defs>
    <g id="wing">
      <path d="M8 13C11 23 16 25 34 25H365C393 25 411 24 427 19 416 26 400 28 373 28H31C17 28 11 30 8 41Z"/>
      <path d="M28 19H347C366 19 376 17 382 13 379 21 368 22 351 22H42Z"/>
      <path d="M28 35H347C366 35 376 37 382 41 379 33 368 32 351 32H42Z"/>
      <path d="M207 18C209 24 212 26 223 27 212 28 209 30 207 36 205 30 202 28 191 27 202 26 205 24 207 18Z"/>
      <path d="M408 22C416 26 428 26 438 24 435 28 435 30 439 34 425 29 415 29 405 31Z"/>
    </g>
  </defs>
  <use href="#wing"/>
  <use href="#wing" transform="translate(960 0) scale(-1 1)"/>
  <!-- A carved central crest with a hollow crown and hanging point. -->
  <path fill-rule="evenodd" d="M480 4C470 17 455 22 436 27 455 28 471 31 480 49 489 31 505 28 524 27 505 22 490 17 480 4ZM480 13 492 26H468ZM480 39 473 29H487Z"/>
  <path d="M449 18C456 24 461 25 471 26 459 27 453 26 449 18ZM511 18C504 24 499 25 489 26 501 27 507 26 511 18Z"/>
  <path d="m480 51 2 2-2 2-2-2Z"/>
</svg>
